<?xml version="1.0" encoding="UTF-8"?>
<!DOCTYPE svg PUBLIC "-//W3C//DTD SVG 1.1//EN" "http://www.w3.org/Graphics/SVG/1.1/DTD/svg11.dtd">
<svg version="1.1" xmlns="http://www.w3.org/2000/svg" xmlns:xlink="http://www.w3.org/1999/xlink" x="0px" y="0px" width="128" height="128" viewBox="0, 0, 128, 128">
  <g id="Background">
    <rect x="0" y="0" width="128" height="128" fill="#000000" fill-opacity="0"/>
  </g>
  <g id="Background">
    <path d="M18.093,6 L109.907,6 C116.561,6 122,11.439 122,18.093 L122,109.907 C122,116.561 116.561,122 109.907,122 L18.093,122 C11.439,122 6,116.561 6,109.907 L6,18.093 C6,11.439 11.439,6 18.093,6" fill="#727272"/>
    <path d="M62.302,53.483 L65.7,53.483 L65.7,17.125 L62.302,17.125 z" fill="#EBECEC"/>
    <path d="M62.305,15.188 L101.832,25.78 L62.31,36.529 z" fill="#EBECEC"/>
    <path d="M64,46.792 C81.4,46.792 95.507,60.899 95.507,78.299 C95.507,95.699 81.4,109.805 64,109.805 C46.6,109.805 32.493,95.699 32.493,78.299 C32.493,60.899 46.6,46.792 64,46.792" fill="#EBEDED"/>
    <path d="M37.225,91.096 C39.959,86.597 44.796,84.542 48.016,86.501 C51.24,88.465 51.633,93.702 48.893,98.201 C46.157,102.7 41.32,104.759 38.101,102.796 C34.878,100.836 34.484,95.599 37.225,91.096" fill="#727272"/>
    <path d="M43.165,65.155 C48.98,60.62 56.333,60.319 59.584,64.483 C62.83,68.653 60.754,75.71 54.934,80.248 C49.117,84.783 41.763,85.085 38.517,80.92 C35.264,76.75 37.347,69.695 43.165,65.155" fill="#727272"/>
    <path d="M68.179,52.93 C72.499,51.855 76.628,53.496 77.395,56.592 C78.162,59.684 75.284,63.064 70.965,64.137 C66.644,65.21 62.521,63.575 61.749,60.478 C60.981,57.382 63.858,54.003 68.179,52.93" fill="#727272"/>
    <path d="M45.303,51.952 C47.783,50.065 50.894,49.975 52.245,51.756 C53.597,53.533 52.679,56.5 50.194,58.387 C47.715,60.273 44.604,60.36 43.257,58.583 C41.905,56.806 42.824,53.834 45.303,51.952" fill="#727272"/>
    <path d="M32.533,78.485 C34.241,75.879 37.141,74.759 39.01,75.983 C40.877,77.208 41.006,80.312 39.297,82.921 C37.589,85.528 34.689,86.647 32.822,85.423 C30.955,84.198 30.826,81.094 32.533,78.485" fill="#727272"/>
  </g>
  <defs/>
</svg>
